<svg width="28" height="28" viewBox="0 0 28 28" fill="none" xmlns="http://www.w3.org/2000/svg">
<path d="M14 0.666992C15.7681 0.666992 17.4638 1.36937 18.714 2.61961C19.9643 3.86986 20.6667 5.56555 20.6667 7.33366C20.6667 9.10177 19.9643 10.7975 18.714 12.0477C17.4638 13.2979 15.7681 14.0003 14 14.0003C12.2319 14.0003 10.5362 13.2979 9.28595 12.0477C8.03571 10.7975 7.33333 9.10177 7.33333 7.33366C7.33333 5.56555 8.03571 3.86986 9.28595 2.61961C10.5362 1.36937 12.2319 0.666992 14 0.666992ZM14 17.3337C21.3667 17.3337 27.3333 20.317 27.3333 24.0003V27.3337H0.666664V24.0003C0.666664 20.317 6.63333 17.3337 14 17.3337Z" fill="white"/>
</svg>
