<svg width="57" height="65" viewBox="0 0 57 65" fill="none" xmlns="http://www.w3.org/2000/svg">
<mask id="path-1-outside-1_52_1280" maskUnits="userSpaceOnUse" x="8.8916" y="9.35595" width="39" height="47" fill="black">
<rect fill="white" x="8.8916" y="9.35595" width="39" height="47"/>
<path d="M10.6203 27.8002C9.07856 26.1965 10.2846 22.5529 12.4605 21.9011C12.4454 21.1468 12.6032 20.4011 12.9184 19.7363C13.2336 19.0715 13.6955 18.5103 14.2592 18.1074C14.29 17.282 14.5325 16.4846 14.9571 15.8125C15.3818 15.1405 15.9703 14.623 16.6506 14.3231C16.6921 12.4474 18.0598 10.356 19.8751 10.356C21.5329 10.356 22.8094 12.0816 23.054 13.8214L28.2098 16.3348C28.7482 15.8615 29.3898 15.5617 30.0665 15.4673C29.9727 14.5089 29.57 13.6232 28.9354 12.9796C28.3008 12.3359 27.4788 11.9795 26.6266 11.9785C26.5166 11.9785 26.4112 11.9291 26.3335 11.8411C26.2558 11.7532 26.2121 11.6339 26.2121 11.5095C26.2121 11.3852 26.2558 11.2659 26.3335 11.1779C26.4112 11.09 26.5166 11.0406 26.6266 11.0406C27.6947 11.0423 28.7239 11.4944 29.5133 12.3086C30.3026 13.1228 30.7954 14.2406 30.8954 15.4439C31.7898 15.5324 32.6285 15.9725 33.266 16.6877C33.9035 17.403 34.2995 18.3483 34.3851 19.3595L45.8158 24.9491C46.1481 25.1024 46.4301 25.369 46.6224 25.7119C46.8148 26.0547 46.908 26.4568 46.8892 26.8624L46.8892 52.9256C46.8859 53.601 46.6465 54.2474 46.2233 54.7237C45.8 55.1999 45.2274 55.4673 44.6304 55.4672L12.875 55.4672C12.2762 55.466 11.7023 55.1963 11.279 54.7173C10.8556 54.2383 10.6173 53.589 10.6162 52.9116C10.6162 52.9116 10.6203 46.2433 10.6203 27.8002ZM12.2782 50.2808C12.6926 50.4825 10.6203 50.4168 45.1071 50.4168C45.2317 50.4208 45.3558 50.3958 45.4715 50.3433C45.5873 50.2908 45.6923 50.2121 45.7801 50.1119C45.8679 50.0116 45.9366 49.8921 45.9819 49.7607C46.0273 49.6292 46.0483 49.4887 46.0437 49.3477L46.0437 32.3254C45.8795 32.4755 45.6983 32.6 45.5049 32.6959C44.9413 32.9772 45.248 32.9022 37.8375 32.9022L37.8375 33.676C37.8364 34.3355 37.6041 34.9677 37.1915 35.4336C36.7789 35.8996 36.2197 36.1613 35.6368 36.1613C35.2737 36.1625 34.9258 36.3266 34.6694 36.6176C34.4131 36.9085 34.2691 37.3026 34.2691 37.7135L34.2691 46.0886C34.2691 46.7477 34.0377 47.3799 33.6257 47.846C33.2138 48.3121 32.6551 48.5739 32.0725 48.5739C31.4899 48.5739 30.9312 48.3121 30.5192 47.846C30.1073 47.3799 29.8759 46.7477 29.8759 46.0886L29.8759 32.9022L25.1925 32.9022L25.1925 33.6806C25.168 34.3205 24.926 34.9249 24.5171 35.3679C24.1083 35.8108 23.5641 36.0581 22.998 36.0581C22.4319 36.0581 21.8877 35.8108 21.4789 35.3679C21.07 34.9249 20.8281 34.3205 20.8035 33.6806L20.8035 32.9022C12.332 32.9022 12.5724 32.9632 12.0999 32.7568C11.8496 32.6608 11.6166 32.5146 11.4119 32.3254C11.4119 54.9092 11.4119 47.1343 11.4119 48.8365C11.4226 49.1461 11.5115 49.4458 11.6679 49.7C11.8243 49.9543 12.0419 50.1526 12.2947 50.2715L12.2782 50.2808ZM37.8541 31.4157L37.8541 31.9644L44.6304 31.9644C45.0093 31.9631 45.3724 31.7923 45.6403 31.4891C45.9082 31.186 46.0592 30.7752 46.0603 30.3465L46.0603 28.4708C45.7765 28.6591 45.4527 28.7564 45.1236 28.7522L40.1958 28.7522C39.8872 28.7522 39.5817 28.8212 39.2968 28.9552C39.0119 29.0892 38.7532 29.2856 38.5356 29.5331C38.318 29.7807 38.1457 30.0744 38.0288 30.3975C37.9118 30.7206 37.8525 31.0666 37.8541 31.4157ZM27.5508 28.7662C26.9297 28.7662 26.3341 29.0454 25.895 29.5422C25.4558 30.0391 25.2091 30.713 25.2091 31.4157L25.2091 31.9644L29.8925 31.9644L29.8925 31.4157C29.8925 30.713 29.6457 30.0391 29.2066 29.5422C28.7674 29.0454 28.1718 28.7662 27.5508 28.7662ZM11.4492 30.3465C11.4503 30.7752 11.6013 31.186 11.8693 31.4891C12.1372 31.7923 12.5002 31.9631 12.8791 31.9644L20.8201 31.9644L20.8201 31.4157C20.8195 31.0664 20.758 30.7206 20.6391 30.3982C20.5202 30.0758 20.3462 29.7831 20.1271 29.537C19.908 29.2908 19.6481 29.096 19.3624 28.9638C19.0766 28.8315 18.7706 28.7644 18.4618 28.7662L12.8833 28.7662C12.526 28.7683 12.1735 28.6735 11.8554 28.4896C11.7142 28.4551 11.5756 28.408 11.441 28.3489L11.4492 30.3465ZM10.7571 25.8495C10.7571 27.3172 11.8554 27.7252 13.1568 27.7252C15.5523 27.7252 15.5523 26.3184 15.5523 25.8495C15.5523 24.4099 14.5328 22.7217 13.1236 22.7217C11.7974 22.7592 10.7571 24.3911 10.7571 25.8495ZM15.1172 18.6889C14.0562 19.0593 13.2853 20.4708 13.2853 21.7135C13.2853 21.8448 13.2355 21.7463 13.6127 21.8307C14.0596 21.9353 14.4821 22.145 14.8527 22.4464C15.2232 22.7477 15.5336 23.1339 15.7637 23.5798C18.0805 23.547 18.0805 22.173 18.0805 21.7041C18.0805 19.9597 16.6258 18.1215 15.1172 18.6889ZM15.1172 17.7135C16.5802 17.3665 17.9147 18.4263 18.5447 19.9691C19.871 19.6174 19.871 18.6045 19.871 18.2293C19.871 16.7194 18.7561 14.9937 17.3013 15.1109C16.1823 15.2469 15.3327 16.4521 15.1255 17.7135L15.1172 17.7135ZM19.8751 11.2844C19.4949 11.3069 19.1254 11.435 18.7994 11.6575C18.4734 11.88 18.2009 12.1899 18.0059 12.5599C17.7192 13.0377 17.5425 13.589 17.492 14.1637C18.0766 14.198 18.642 14.4111 19.1281 14.7802C19.6142 15.1493 20.0027 15.6607 20.2523 16.2598C22.2209 16.1285 22.2748 14.914 22.2748 14.4497C22.2706 12.9398 21.2138 11.2844 19.8751 11.2844ZM30.481 16.363C29.8529 16.3807 29.2453 16.6194 28.7427 17.0461C28.2402 17.4728 27.8677 18.0661 27.6771 18.7434C27.4865 19.4208 27.4873 20.1486 27.6794 20.8254C27.8715 21.5023 28.2452 22.0945 28.7487 22.5198C29.2522 22.9451 29.8603 23.1822 30.4884 23.1981C31.1165 23.214 31.7334 23.008 32.2532 22.6087C32.773 22.2094 33.1699 21.6367 33.3886 20.9703C33.6073 20.3039 33.6369 19.5769 33.4733 18.8905C33.2971 18.1508 32.9062 17.4994 32.3636 17.0411C31.821 16.5827 31.1579 16.3439 30.481 16.363ZM45.4967 25.812L34.3686 20.3677C34.291 21.0353 34.0775 21.6734 33.745 22.2319C33.4125 22.7903 32.9699 23.2538 32.4522 23.5859C31.9345 23.9181 31.3557 24.1097 30.7615 24.1458C30.1672 24.1819 29.5736 24.0615 29.0274 23.794C28.4813 23.5265 27.9974 23.1193 27.614 22.6043C27.2305 22.0894 26.9579 21.4808 26.8175 20.8264C26.6772 20.172 26.673 19.4897 26.8053 18.8332C26.9376 18.1767 27.2027 17.5639 27.5798 17.0429L23.083 14.8389C22.9752 15.7768 22.4571 16.9398 20.5962 17.1836C21.0107 18.8342 20.5134 20.3911 18.839 20.8694C18.8916 21.1435 18.9152 21.4237 18.9094 21.7041C18.9094 22.6889 18.5406 24.2973 16.1616 24.4849C16.5387 25.6385 16.4724 27.003 15.6518 27.819L18.4618 27.819C19.3031 27.819 20.11 28.1968 20.7052 28.8694C21.3005 29.542 21.6354 30.4545 21.6365 31.4063L21.6365 33.6713C21.6558 34.0663 21.808 34.4381 22.062 34.71C22.316 34.982 22.6524 35.1336 23.0022 35.1336C23.3519 35.1336 23.6883 34.982 23.9423 34.71C24.1963 34.4381 24.3485 34.0663 24.3678 33.6713L24.3678 31.4157C24.3678 30.4643 24.7018 29.5518 25.2964 28.8791C25.891 28.2063 26.6975 27.8284 27.5384 27.8284C28.3792 27.8284 29.1857 28.2063 29.7803 28.8791C30.3749 29.5518 30.7089 30.4643 30.7089 31.4157L30.7089 46.0886C30.7089 46.499 30.853 46.8926 31.1095 47.1828C31.366 47.473 31.7139 47.6361 32.0766 47.6361C32.4394 47.6361 32.7872 47.473 33.0437 47.1828C33.3002 46.8926 33.4443 46.499 33.4443 46.0886L33.4443 37.7135C33.4443 37.0539 33.6756 36.4212 34.0874 35.9544C34.4993 35.4876 35.058 35.2247 35.6409 35.2234C36.0041 35.2234 36.3524 35.0606 36.6095 34.7705C36.8667 34.4804 37.0117 34.0868 37.0128 33.676L37.0128 31.4157C37.0139 30.4647 37.3483 29.5529 37.9426 28.8804C38.537 28.208 39.3428 27.8296 40.1834 27.8284C45.5505 27.8284 45.2273 27.8284 45.4428 27.7674C45.6171 27.6947 45.7683 27.5648 45.8769 27.3943C45.9856 27.2237 46.0467 27.0204 46.0525 26.8102C46.0583 26.6001 46.0084 26.3929 45.9094 26.215C45.8104 26.0371 45.6667 25.8968 45.4967 25.812ZM11.4451 52.9256C11.4495 53.3519 11.6019 53.7591 11.8695 54.0592C12.137 54.3593 12.4982 54.5282 12.875 54.5294L44.6304 54.5294C45.0093 54.5281 45.3724 54.3573 45.6403 54.0542C45.9082 53.751 46.0592 53.3403 46.0603 52.9116L46.0603 51.0358C45.8872 51.1544 45.696 51.2355 45.4967 51.275C45.1858 51.3406 47.4446 51.3172 12.8833 51.3172C12.3651 51.3169 11.8609 51.1278 11.4451 50.7779L11.4451 52.9256Z"/>
</mask>
<path d="M10.6203 27.8002C9.07856 26.1965 10.2846 22.5529 12.4605 21.9011C12.4454 21.1468 12.6032 20.4011 12.9184 19.7363C13.2336 19.0715 13.6955 18.5103 14.2592 18.1074C14.29 17.282 14.5325 16.4846 14.9571 15.8125C15.3818 15.1405 15.9703 14.623 16.6506 14.3231C16.6921 12.4474 18.0598 10.356 19.8751 10.356C21.5329 10.356 22.8094 12.0816 23.054 13.8214L28.2098 16.3348C28.7482 15.8615 29.3898 15.5617 30.0665 15.4673C29.9727 14.5089 29.57 13.6232 28.9354 12.9796C28.3008 12.3359 27.4788 11.9795 26.6266 11.9785C26.5166 11.9785 26.4112 11.9291 26.3335 11.8411C26.2558 11.7532 26.2121 11.6339 26.2121 11.5095C26.2121 11.3852 26.2558 11.2659 26.3335 11.1779C26.4112 11.09 26.5166 11.0406 26.6266 11.0406C27.6947 11.0423 28.7239 11.4944 29.5133 12.3086C30.3026 13.1228 30.7954 14.2406 30.8954 15.4439C31.7898 15.5324 32.6285 15.9725 33.266 16.6877C33.9035 17.403 34.2995 18.3483 34.3851 19.3595L45.8158 24.9491C46.1481 25.1024 46.4301 25.369 46.6224 25.7119C46.8148 26.0547 46.908 26.4568 46.8892 26.8624L46.8892 52.9256C46.8859 53.601 46.6465 54.2474 46.2233 54.7237C45.8 55.1999 45.2274 55.4673 44.6304 55.4672L12.875 55.4672C12.2762 55.466 11.7023 55.1963 11.279 54.7173C10.8556 54.2383 10.6173 53.589 10.6162 52.9116C10.6162 52.9116 10.6203 46.2433 10.6203 27.8002ZM12.2782 50.2808C12.6926 50.4825 10.6203 50.4168 45.1071 50.4168C45.2317 50.4208 45.3558 50.3958 45.4715 50.3433C45.5873 50.2908 45.6923 50.2121 45.7801 50.1119C45.8679 50.0116 45.9366 49.8921 45.9819 49.7607C46.0273 49.6292 46.0483 49.4887 46.0437 49.3477L46.0437 32.3254C45.8795 32.4755 45.6983 32.6 45.5049 32.6959C44.9413 32.9772 45.248 32.9022 37.8375 32.9022L37.8375 33.676C37.8364 34.3355 37.6041 34.9677 37.1915 35.4336C36.7789 35.8996 36.2197 36.1613 35.6368 36.1613C35.2737 36.1625 34.9258 36.3266 34.6694 36.6176C34.4131 36.9085 34.2691 37.3026 34.2691 37.7135L34.2691 46.0886C34.2691 46.7477 34.0377 47.3799 33.6257 47.846C33.2138 48.3121 32.6551 48.5739 32.0725 48.5739C31.4899 48.5739 30.9312 48.3121 30.5192 47.846C30.1073 47.3799 29.8759 46.7477 29.8759 46.0886L29.8759 32.9022L25.1925 32.9022L25.1925 33.6806C25.168 34.3205 24.926 34.9249 24.5171 35.3679C24.1083 35.8108 23.5641 36.0581 22.998 36.0581C22.4319 36.0581 21.8877 35.8108 21.4789 35.3679C21.07 34.9249 20.8281 34.3205 20.8035 33.6806L20.8035 32.9022C12.332 32.9022 12.5724 32.9632 12.0999 32.7568C11.8496 32.6608 11.6166 32.5146 11.4119 32.3254C11.4119 54.9092 11.4119 47.1343 11.4119 48.8365C11.4226 49.1461 11.5115 49.4458 11.6679 49.7C11.8243 49.9543 12.0419 50.1526 12.2947 50.2715L12.2782 50.2808ZM37.8541 31.4157L37.8541 31.9644L44.6304 31.9644C45.0093 31.9631 45.3724 31.7923 45.6403 31.4891C45.9082 31.186 46.0592 30.7752 46.0603 30.3465L46.0603 28.4708C45.7765 28.6591 45.4527 28.7564 45.1236 28.7522L40.1958 28.7522C39.8872 28.7522 39.5817 28.8212 39.2968 28.9552C39.0119 29.0892 38.7532 29.2856 38.5356 29.5331C38.318 29.7807 38.1457 30.0744 38.0288 30.3975C37.9118 30.7206 37.8525 31.0666 37.8541 31.4157ZM27.5508 28.7662C26.9297 28.7662 26.3341 29.0454 25.895 29.5422C25.4558 30.0391 25.2091 30.713 25.2091 31.4157L25.2091 31.9644L29.8925 31.9644L29.8925 31.4157C29.8925 30.713 29.6457 30.0391 29.2066 29.5422C28.7674 29.0454 28.1718 28.7662 27.5508 28.7662ZM11.4492 30.3465C11.4503 30.7752 11.6013 31.186 11.8693 31.4891C12.1372 31.7923 12.5002 31.9631 12.8791 31.9644L20.8201 31.9644L20.8201 31.4157C20.8195 31.0664 20.758 30.7206 20.6391 30.3982C20.5202 30.0758 20.3462 29.7831 20.1271 29.537C19.908 29.2908 19.6481 29.096 19.3624 28.9638C19.0766 28.8315 18.7706 28.7644 18.4618 28.7662L12.8833 28.7662C12.526 28.7683 12.1735 28.6735 11.8554 28.4896C11.7142 28.4551 11.5756 28.408 11.441 28.3489L11.4492 30.3465ZM10.7571 25.8495C10.7571 27.3172 11.8554 27.7252 13.1568 27.7252C15.5523 27.7252 15.5523 26.3184 15.5523 25.8495C15.5523 24.4099 14.5328 22.7217 13.1236 22.7217C11.7974 22.7592 10.7571 24.3911 10.7571 25.8495ZM15.1172 18.6889C14.0562 19.0593 13.2853 20.4708 13.2853 21.7135C13.2853 21.8448 13.2355 21.7463 13.6127 21.8307C14.0596 21.9353 14.4821 22.145 14.8527 22.4464C15.2232 22.7477 15.5336 23.1339 15.7637 23.5798C18.0805 23.547 18.0805 22.173 18.0805 21.7041C18.0805 19.9597 16.6258 18.1215 15.1172 18.6889ZM15.1172 17.7135C16.5802 17.3665 17.9147 18.4263 18.5447 19.9691C19.871 19.6174 19.871 18.6045 19.871 18.2293C19.871 16.7194 18.7561 14.9937 17.3013 15.1109C16.1823 15.2469 15.3327 16.4521 15.1255 17.7135L15.1172 17.7135ZM19.8751 11.2844C19.4949 11.3069 19.1254 11.435 18.7994 11.6575C18.4734 11.88 18.2009 12.1899 18.0059 12.5599C17.7192 13.0377 17.5425 13.589 17.492 14.1637C18.0766 14.198 18.642 14.4111 19.1281 14.7802C19.6142 15.1493 20.0027 15.6607 20.2523 16.2598C22.2209 16.1285 22.2748 14.914 22.2748 14.4497C22.2706 12.9398 21.2138 11.2844 19.8751 11.2844ZM30.481 16.363C29.8529 16.3807 29.2453 16.6194 28.7427 17.0461C28.2402 17.4728 27.8677 18.0661 27.6771 18.7434C27.4865 19.4208 27.4873 20.1486 27.6794 20.8254C27.8715 21.5023 28.2452 22.0945 28.7487 22.5198C29.2522 22.9451 29.8603 23.1822 30.4884 23.1981C31.1165 23.214 31.7334 23.008 32.2532 22.6087C32.773 22.2094 33.1699 21.6367 33.3886 20.9703C33.6073 20.3039 33.6369 19.5769 33.4733 18.8905C33.2971 18.1508 32.9062 17.4994 32.3636 17.0411C31.821 16.5827 31.1579 16.3439 30.481 16.363ZM45.4967 25.812L34.3686 20.3677C34.291 21.0353 34.0775 21.6734 33.745 22.2319C33.4125 22.7903 32.9699 23.2538 32.4522 23.5859C31.9345 23.9181 31.3557 24.1097 30.7615 24.1458C30.1672 24.1819 29.5736 24.0615 29.0274 23.794C28.4813 23.5265 27.9974 23.1193 27.614 22.6043C27.2305 22.0894 26.9579 21.4808 26.8175 20.8264C26.6772 20.172 26.673 19.4897 26.8053 18.8332C26.9376 18.1767 27.2027 17.5639 27.5798 17.0429L23.083 14.8389C22.9752 15.7768 22.4571 16.9398 20.5962 17.1836C21.0107 18.8342 20.5134 20.3911 18.839 20.8694C18.8916 21.1435 18.9152 21.4237 18.9094 21.7041C18.9094 22.6889 18.5406 24.2973 16.1616 24.4849C16.5387 25.6385 16.4724 27.003 15.6518 27.819L18.4618 27.819C19.3031 27.819 20.11 28.1968 20.7052 28.8694C21.3005 29.542 21.6354 30.4545 21.6365 31.4063L21.6365 33.6713C21.6558 34.0663 21.808 34.4381 22.062 34.71C22.316 34.982 22.6524 35.1336 23.0022 35.1336C23.3519 35.1336 23.6883 34.982 23.9423 34.71C24.1963 34.4381 24.3485 34.0663 24.3678 33.6713L24.3678 31.4157C24.3678 30.4643 24.7018 29.5518 25.2964 28.8791C25.891 28.2063 26.6975 27.8284 27.5384 27.8284C28.3792 27.8284 29.1857 28.2063 29.7803 28.8791C30.3749 29.5518 30.7089 30.4643 30.7089 31.4157L30.7089 46.0886C30.7089 46.499 30.853 46.8926 31.1095 47.1828C31.366 47.473 31.7139 47.6361 32.0766 47.6361C32.4394 47.6361 32.7872 47.473 33.0437 47.1828C33.3002 46.8926 33.4443 46.499 33.4443 46.0886L33.4443 37.7135C33.4443 37.0539 33.6756 36.4212 34.0874 35.9544C34.4993 35.4876 35.058 35.2247 35.6409 35.2234C36.0041 35.2234 36.3524 35.0606 36.6095 34.7705C36.8667 34.4804 37.0117 34.0868 37.0128 33.676L37.0128 31.4157C37.0139 30.4647 37.3483 29.5529 37.9426 28.8804C38.537 28.208 39.3428 27.8296 40.1834 27.8284C45.5505 27.8284 45.2273 27.8284 45.4428 27.7674C45.6171 27.6947 45.7683 27.5648 45.8769 27.3943C45.9856 27.2237 46.0467 27.0204 46.0525 26.8102C46.0583 26.6001 46.0084 26.3929 45.9094 26.215C45.8104 26.0371 45.6667 25.8968 45.4967 25.812ZM11.4451 52.9256C11.4495 53.3519 11.6019 53.7591 11.8695 54.0592C12.137 54.3593 12.4982 54.5282 12.875 54.5294L44.6304 54.5294C45.0093 54.5281 45.3724 54.3573 45.6403 54.0542C45.9082 53.751 46.0592 53.3403 46.0603 52.9116L46.0603 51.0358C45.8872 51.1544 45.696 51.2355 45.4967 51.275C45.1858 51.3406 47.4446 51.3172 12.8833 51.3172C12.3651 51.3169 11.8609 51.1278 11.4451 50.7779L11.4451 52.9256Z" fill="#96CDEC"/>
<path d="M10.6203 27.8002C9.07856 26.1965 10.2846 22.5529 12.4605 21.9011C12.4454 21.1468 12.6032 20.4011 12.9184 19.7363C13.2336 19.0715 13.6955 18.5103 14.2592 18.1074C14.29 17.282 14.5325 16.4846 14.9571 15.8125C15.3818 15.1405 15.9703 14.623 16.6506 14.3231C16.6921 12.4474 18.0598 10.356 19.8751 10.356C21.5329 10.356 22.8094 12.0816 23.054 13.8214L28.2098 16.3348C28.7482 15.8615 29.3898 15.5617 30.0665 15.4673C29.9727 14.5089 29.57 13.6232 28.9354 12.9796C28.3008 12.3359 27.4788 11.9795 26.6266 11.9785C26.5166 11.9785 26.4112 11.9291 26.3335 11.8411C26.2558 11.7532 26.2121 11.6339 26.2121 11.5095C26.2121 11.3852 26.2558 11.2659 26.3335 11.1779C26.4112 11.09 26.5166 11.0406 26.6266 11.0406C27.6947 11.0423 28.7239 11.4944 29.5133 12.3086C30.3026 13.1228 30.7954 14.2406 30.8954 15.4439C31.7898 15.5324 32.6285 15.9725 33.266 16.6877C33.9035 17.403 34.2995 18.3483 34.3851 19.3595L45.8158 24.9491C46.1481 25.1024 46.4301 25.369 46.6224 25.7119C46.8148 26.0547 46.908 26.4568 46.8892 26.8624L46.8892 52.9256C46.8859 53.601 46.6465 54.2474 46.2233 54.7237C45.8 55.1999 45.2274 55.4673 44.6304 55.4672L12.875 55.4672C12.2762 55.466 11.7023 55.1963 11.279 54.7173C10.8556 54.2383 10.6173 53.589 10.6162 52.9116C10.6162 52.9116 10.6203 46.2433 10.6203 27.8002ZM12.2782 50.2808C12.6926 50.4825 10.6203 50.4168 45.1071 50.4168C45.2317 50.4208 45.3558 50.3958 45.4715 50.3433C45.5873 50.2908 45.6923 50.2121 45.7801 50.1119C45.8679 50.0116 45.9366 49.8921 45.9819 49.7607C46.0273 49.6292 46.0483 49.4887 46.0437 49.3477L46.0437 32.3254C45.8795 32.4755 45.6983 32.6 45.5049 32.6959C44.9413 32.9772 45.248 32.9022 37.8375 32.9022L37.8375 33.676C37.8364 34.3355 37.6041 34.9677 37.1915 35.4336C36.7789 35.8996 36.2197 36.1613 35.6368 36.1613C35.2737 36.1625 34.9258 36.3266 34.6694 36.6176C34.4131 36.9085 34.2691 37.3026 34.2691 37.7135L34.2691 46.0886C34.2691 46.7477 34.0377 47.3799 33.6257 47.846C33.2138 48.3121 32.6551 48.5739 32.0725 48.5739C31.4899 48.5739 30.9312 48.3121 30.5192 47.846C30.1073 47.3799 29.8759 46.7477 29.8759 46.0886L29.8759 32.9022L25.1925 32.9022L25.1925 33.6806C25.168 34.3205 24.926 34.9249 24.5171 35.3679C24.1083 35.8108 23.5641 36.0581 22.998 36.0581C22.4319 36.0581 21.8877 35.8108 21.4789 35.3679C21.07 34.9249 20.8281 34.3205 20.8035 33.6806L20.8035 32.9022C12.332 32.9022 12.5724 32.9632 12.0999 32.7568C11.8496 32.6608 11.6166 32.5146 11.4119 32.3254C11.4119 54.9092 11.4119 47.1343 11.4119 48.8365C11.4226 49.1461 11.5115 49.4458 11.6679 49.7C11.8243 49.9543 12.0419 50.1526 12.2947 50.2715L12.2782 50.2808ZM37.8541 31.4157L37.8541 31.9644L44.6304 31.9644C45.0093 31.9631 45.3724 31.7923 45.6403 31.4891C45.9082 31.186 46.0592 30.7752 46.0603 30.3465L46.0603 28.4708C45.7765 28.6591 45.4527 28.7564 45.1236 28.7522L40.1958 28.7522C39.8872 28.7522 39.5817 28.8212 39.2968 28.9552C39.0119 29.0892 38.7532 29.2856 38.5356 29.5331C38.318 29.7807 38.1457 30.0744 38.0288 30.3975C37.9118 30.7206 37.8525 31.0666 37.8541 31.4157ZM27.5508 28.7662C26.9297 28.7662 26.3341 29.0454 25.895 29.5422C25.4558 30.0391 25.2091 30.713 25.2091 31.4157L25.2091 31.9644L29.8925 31.9644L29.8925 31.4157C29.8925 30.713 29.6457 30.0391 29.2066 29.5422C28.7674 29.0454 28.1718 28.7662 27.5508 28.7662ZM11.4492 30.3465C11.4503 30.7752 11.6013 31.186 11.8693 31.4891C12.1372 31.7923 12.5002 31.9631 12.8791 31.9644L20.8201 31.9644L20.8201 31.4157C20.8195 31.0664 20.758 30.7206 20.6391 30.3982C20.5202 30.0758 20.3462 29.7831 20.1271 29.537C19.908 29.2908 19.6481 29.096 19.3624 28.9638C19.0766 28.8315 18.7706 28.7644 18.4618 28.7662L12.8833 28.7662C12.526 28.7683 12.1735 28.6735 11.8554 28.4896C11.7142 28.4551 11.5756 28.408 11.441 28.3489L11.4492 30.3465ZM10.7571 25.8495C10.7571 27.3172 11.8554 27.7252 13.1568 27.7252C15.5523 27.7252 15.5523 26.3184 15.5523 25.8495C15.5523 24.4099 14.5328 22.7217 13.1236 22.7217C11.7974 22.7592 10.7571 24.3911 10.7571 25.8495ZM15.1172 18.6889C14.0562 19.0593 13.2853 20.4708 13.2853 21.7135C13.2853 21.8448 13.2355 21.7463 13.6127 21.8307C14.0596 21.9353 14.4821 22.145 14.8527 22.4464C15.2232 22.7477 15.5336 23.1339 15.7637 23.5798C18.0805 23.547 18.0805 22.173 18.0805 21.7041C18.0805 19.9597 16.6258 18.1215 15.1172 18.6889ZM15.1172 17.7135C16.5802 17.3665 17.9147 18.4263 18.5447 19.9691C19.871 19.6174 19.871 18.6045 19.871 18.2293C19.871 16.7194 18.7561 14.9937 17.3013 15.1109C16.1823 15.2469 15.3327 16.4521 15.1255 17.7135L15.1172 17.7135ZM19.8751 11.2844C19.4949 11.3069 19.1254 11.435 18.7994 11.6575C18.4734 11.88 18.2009 12.1899 18.0059 12.5599C17.7192 13.0377 17.5425 13.589 17.492 14.1637C18.0766 14.198 18.642 14.4111 19.1281 14.7802C19.6142 15.1493 20.0027 15.6607 20.2523 16.2598C22.2209 16.1285 22.2748 14.914 22.2748 14.4497C22.2706 12.9398 21.2138 11.2844 19.8751 11.2844ZM30.481 16.363C29.8529 16.3807 29.2453 16.6194 28.7427 17.0461C28.2402 17.4728 27.8677 18.0661 27.6771 18.7434C27.4865 19.4208 27.4873 20.1486 27.6794 20.8254C27.8715 21.5023 28.2452 22.0945 28.7487 22.5198C29.2522 22.9451 29.8603 23.1822 30.4884 23.1981C31.1165 23.214 31.7334 23.008 32.2532 22.6087C32.773 22.2094 33.1699 21.6367 33.3886 20.9703C33.6073 20.3039 33.6369 19.5769 33.4733 18.8905C33.2971 18.1508 32.9062 17.4994 32.3636 17.0411C31.821 16.5827 31.1579 16.3439 30.481 16.363ZM45.4967 25.812L34.3686 20.3677C34.291 21.0353 34.0775 21.6734 33.745 22.2319C33.4125 22.7903 32.9699 23.2538 32.4522 23.5859C31.9345 23.9181 31.3557 24.1097 30.7615 24.1458C30.1672 24.1819 29.5736 24.0615 29.0274 23.794C28.4813 23.5265 27.9974 23.1193 27.614 22.6043C27.2305 22.0894 26.9579 21.4808 26.8175 20.8264C26.6772 20.172 26.673 19.4897 26.8053 18.8332C26.9376 18.1767 27.2027 17.5639 27.5798 17.0429L23.083 14.8389C22.9752 15.7768 22.4571 16.9398 20.5962 17.1836C21.0107 18.8342 20.5134 20.3911 18.839 20.8694C18.8916 21.1435 18.9152 21.4237 18.9094 21.7041C18.9094 22.6889 18.5406 24.2973 16.1616 24.4849C16.5387 25.6385 16.4724 27.003 15.6518 27.819L18.4618 27.819C19.3031 27.819 20.11 28.1968 20.7052 28.8694C21.3005 29.542 21.6354 30.4545 21.6365 31.4063L21.6365 33.6713C21.6558 34.0663 21.808 34.4381 22.062 34.71C22.316 34.982 22.6524 35.1336 23.0022 35.1336C23.3519 35.1336 23.6883 34.982 23.9423 34.71C24.1963 34.4381 24.3485 34.0663 24.3678 33.6713L24.3678 31.4157C24.3678 30.4643 24.7018 29.5518 25.2964 28.8791C25.891 28.2063 26.6975 27.8284 27.5384 27.8284C28.3792 27.8284 29.1857 28.2063 29.7803 28.8791C30.3749 29.5518 30.7089 30.4643 30.7089 31.4157L30.7089 46.0886C30.7089 46.499 30.853 46.8926 31.1095 47.1828C31.366 47.473 31.7139 47.6361 32.0766 47.6361C32.4394 47.6361 32.7872 47.473 33.0437 47.1828C33.3002 46.8926 33.4443 46.499 33.4443 46.0886L33.4443 37.7135C33.4443 37.0539 33.6756 36.4212 34.0874 35.9544C34.4993 35.4876 35.058 35.2247 35.6409 35.2234C36.0041 35.2234 36.3524 35.0606 36.6095 34.7705C36.8667 34.4804 37.0117 34.0868 37.0128 33.676L37.0128 31.4157C37.0139 30.4647 37.3483 29.5529 37.9426 28.8804C38.537 28.208 39.3428 27.8296 40.1834 27.8284C45.5505 27.8284 45.2273 27.8284 45.4428 27.7674C45.6171 27.6947 45.7683 27.5648 45.8769 27.3943C45.9856 27.2237 46.0467 27.0204 46.0525 26.8102C46.0583 26.6001 46.0084 26.3929 45.9094 26.215C45.8104 26.0371 45.6667 25.8968 45.4967 25.812ZM11.4451 52.9256C11.4495 53.3519 11.6019 53.7591 11.8695 54.0592C12.137 54.3593 12.4982 54.5282 12.875 54.5294L44.6304 54.5294C45.0093 54.5281 45.3724 54.3573 45.6403 54.0542C45.9082 53.751 46.0592 53.3403 46.0603 52.9116L46.0603 51.0358C45.8872 51.1544 45.696 51.2355 45.4967 51.275C45.1858 51.3406 47.4446 51.3172 12.8833 51.3172C12.3651 51.3169 11.8609 51.1278 11.4451 50.7779L11.4451 52.9256Z" stroke="#96CDEC" stroke-width="1.5" mask="url(#path-1-outside-1_52_1280)"/>
</svg>
