<svg width="34" height="34" viewBox="0 0 34 34" fill="none" xmlns="http://www.w3.org/2000/svg">
<path d="M30.6667 30.333C30.6667 32.183 29.1833 33.6663 27.3333 33.6663C25.4833 33.6663 24 32.1663 24 30.333C24 28.483 25.4833 26.9997 27.3333 26.9997C29.1833 26.9997 30.6667 28.4997 30.6667 30.333ZM10.6667 26.9997C8.81667 26.9997 7.33333 28.483 7.33333 30.333C7.33333 32.1663 8.81667 33.6663 10.6667 33.6663C12.5167 33.6663 14 32.183 14 30.333C14 28.483 12.5167 26.9997 10.6667 26.9997ZM11 21.383L10.95 21.583C10.95 21.8163 11.1333 21.9997 11.3667 21.9997H30.6667V25.333H10.6667C8.81667 25.333 7.33333 23.833 7.33333 21.9997C7.33333 21.4163 7.48333 20.8663 7.73333 20.3997L10 16.3163L4 3.66634H0.666667V0.333008H6.11667L7.68333 3.66634H32.3333C33.25 3.66634 34 4.41634 34 5.33301C34 5.61634 33.9167 5.89967 33.8 6.16634L27.8333 16.9497C27.2667 17.9663 26.1667 18.6663 24.9167 18.6663H12.5L11 21.383ZM13.1667 15.333H15.6667V11.9997H11.6L13.1667 15.333ZM17.3333 11.9997V15.333H22.3333V11.9997H17.3333ZM22.3333 10.333V6.99967H17.3333V10.333H22.3333ZM27.5167 11.9997H24V15.333H25.6667L27.5167 11.9997ZM30.3 6.99967H24V10.333H28.45L30.3 6.99967ZM9.23333 6.99967L10.8 10.333H15.6667V6.99967H9.23333Z" fill="white"/>
</svg>
