<svg width="42" height="46" viewBox="0 0 42 46" fill="none" xmlns="http://www.w3.org/2000/svg">
<path d="M32.8936 3.31219L32.8936 1.4791C32.8936 1.32717 32.9466 1.18147 33.0409 1.07404C33.1352 0.966609 33.2631 0.906257 33.3965 0.906257C33.5299 0.906257 33.6578 0.96661 33.7521 1.07404C33.8465 1.18147 33.8994 1.32717 33.8994 1.4791L33.8994 3.31219C33.8994 3.46412 33.8465 3.60982 33.7521 3.71725C33.6578 3.82468 33.5299 3.88503 33.3965 3.88503C33.2631 3.88503 33.1352 3.82468 33.0409 3.71725C32.9466 3.60982 32.8936 3.46412 32.8936 3.31219ZM33.4066 5.46608C33.2738 5.46844 33.1471 5.52955 33.0532 5.63647C32.9594 5.74339 32.9057 5.88773 32.9036 6.03892L32.9036 7.87201C32.9036 8.02394 32.9566 8.16964 33.0509 8.27707C33.1453 8.3845 33.2732 8.44485 33.4066 8.44485C33.54 8.44485 33.6679 8.3845 33.7622 8.27707C33.8565 8.16964 33.9095 8.02394 33.9095 7.87201L33.9095 6.03892C33.9095 5.88719 33.8566 5.74166 33.7625 5.63426C33.6684 5.52687 33.5398 5.46638 33.4066 5.46608ZM34.6036 5.23694L35.4083 5.23694C35.5416 5.23694 35.6696 5.17659 35.7639 5.06916C35.8582 4.96173 35.9112 4.81603 35.9112 4.6641C35.9091 4.51291 35.8555 4.36857 35.7616 4.26165C35.6677 4.15473 35.541 4.09362 35.4083 4.09126L34.6036 4.09126C34.4702 4.09126 34.3422 4.15161 34.2479 4.25904C34.1536 4.36647 34.1006 4.51217 34.1006 4.6641C34.1006 4.81603 34.1536 4.96173 34.2479 5.06916C34.3422 5.17659 34.4702 5.23694 34.6036 5.23694ZM31.4049 5.25985L32.2096 5.25985C32.3423 5.25749 32.469 5.19638 32.5629 5.08946C32.6568 4.98254 32.7104 4.8382 32.7125 4.68701C32.7125 4.53509 32.6595 4.38938 32.5652 4.28195C32.4709 4.17452 32.343 4.11417 32.2096 4.11417L31.4049 4.11417C31.2715 4.11417 31.1436 4.17452 31.0492 4.28195C30.9549 4.38938 30.9019 4.53508 30.9019 4.68701C30.9019 4.83894 30.9549 4.98464 31.0492 5.09207C31.1436 5.1995 31.2715 5.25985 31.4049 5.25985ZM40.3169 36.0902C40.2968 36.1246 40.2867 36.1589 40.2666 36.1933C39.3821 38.8165 37.821 41.0731 35.7887 42.6662C33.7564 44.2593 31.3482 45.1141 28.8811 45.1182C27.3927 45.1139 25.9172 44.8034 24.5257 44.2016C23.0244 43.5601 21.6491 42.5872 20.4787 41.3388C19.3084 40.0903 18.3661 38.5909 17.7059 36.9265C17.6958 36.9151 17.6857 36.9151 17.6857 36.9036C17.6711 36.8672 17.661 36.8286 17.6556 36.7891C17.6253 36.6598 17.6371 36.5225 17.6889 36.4024C17.7407 36.2824 17.8289 36.1877 17.9372 36.136C17.9591 36.1231 17.983 36.1154 18.0076 36.1131L18.0378 36.1017L19.7277 35.2195L19.8182 35.1736L19.8685 35.1622L25.1393 32.4469L3.01907 30.9002C2.89375 30.8939 2.77522 30.8336 2.68746 30.7315C2.5997 30.6294 2.54925 30.4932 2.54631 30.3503L2.43567 26.3061L2.11379 15.1242C2.06349 13.4859 1.81202 13.2109 1.47003 12.8214C1.22875 12.563 1.02202 12.2658 0.856444 11.9392C0.527091 11.3825 0.308702 10.7505 0.216605 10.0874C0.124508 9.42439 0.160935 8.74644 0.32333 8.10114C1.02744 5.77541 3.63266 4.57244 5.72488 3.59861L6.23788 3.35801C10.3778 1.67597 14.7482 0.849565 19.1433 0.91771C21.7887 1.06665 22.6336 4.14854 22.7443 6.016L24.5146 7.20751C24.5247 7.20751 24.5247 7.21897 24.5347 7.21897L36.4544 15.2273C36.5271 15.2758 36.5881 15.3441 36.632 15.4261C36.6759 15.5081 36.7013 15.6012 36.7058 15.697L37.0478 26.3175L37.4904 26.0884C37.5005 26.0769 37.5105 26.0769 37.5206 26.0655C37.5324 26.0564 37.5466 26.0523 37.5608 26.054L37.6212 26.0311L39.3312 25.1375L39.3613 25.126C39.416 25.0959 39.4756 25.0794 39.5363 25.0774C39.597 25.0754 39.6573 25.0881 39.7134 25.1146C39.7467 25.1199 39.7781 25.1358 39.8039 25.1604C39.8559 25.1843 39.9011 25.2239 39.9347 25.2749C39.9755 25.3102 40.0069 25.3579 40.0252 25.4124C40.043 25.4524 40.0565 25.4948 40.0654 25.5385L40.0654 25.5499C41.3677 28.8877 41.4581 32.6767 40.3169 36.0902ZM22.1206 6.93255C19.0372 6.98376 15.9962 7.75994 13.1885 9.21246C11.5958 10.0447 10.1372 11.1755 8.87327 12.5579L14.7073 13.0505C15.0764 13.0398 15.4417 13.1361 15.769 13.3305C16.0963 13.5249 16.3748 13.811 16.5783 14.1618C16.7247 14.5323 16.7927 14.9368 16.777 15.3427C16.7613 15.7486 16.6622 16.1446 16.4877 16.499C16.3568 16.7405 16.2784 17.0142 16.2591 17.2972C16.2399 17.5802 16.2803 17.8643 16.3771 18.1259C16.4915 18.3141 16.6451 18.467 16.8242 18.571C17.0032 18.675 17.2022 18.7267 17.4031 18.7216C17.5806 18.754 17.7624 18.7306 17.9291 18.6539C18.0957 18.5771 18.2408 18.45 18.3486 18.2863C18.4698 18.0842 18.5506 17.8543 18.5854 17.6128C18.6202 17.3713 18.608 17.1241 18.5498 16.8885C18.1173 15.5939 18.0871 14.7232 18.4693 14.1389C18.649 13.8944 18.8823 13.7084 19.1456 13.5997C19.4088 13.4911 19.6925 13.4636 19.9681 13.5202C20.7024 13.5661 21.1449 13.6119 21.9798 13.7035L23.0259 13.8067C23.3231 13.8187 23.6125 13.9178 23.8663 14.0944C24.12 14.271 24.3294 14.5191 24.4744 14.8149C24.6497 15.316 24.7261 15.8549 24.6983 16.3934C24.6705 16.9319 24.5391 17.4568 24.3134 17.9311C24.1407 18.3036 24.0454 18.7164 24.0349 19.1375C24.0245 19.5587 24.0991 19.9769 24.2531 20.36C24.294 20.474 24.3636 20.5718 24.453 20.6411C24.5425 20.7104 24.6479 20.7481 24.756 20.7495C24.868 20.7669 24.982 20.7519 25.0874 20.7058C25.1929 20.6598 25.2865 20.5842 25.3596 20.486C25.5135 20.1777 25.6116 19.8373 25.6478 19.485C25.6841 19.1327 25.6579 18.7757 25.5708 18.4352L25.5205 18.0915C25.3193 16.6938 25.1483 15.5023 25.7317 14.769C25.9393 14.5524 26.188 14.3932 26.4584 14.3038C26.7288 14.2143 27.0137 14.1971 27.2908 14.2535C28.4476 14.368 31.777 14.7003 34.0403 14.9294L27.5524 10.5758C27.5396 10.8418 27.4763 11.1014 27.3669 11.3367C27.2575 11.5721 27.1046 11.7777 26.9187 11.9392C26.6148 12.1668 26.2649 12.3021 25.9022 12.3321C25.5396 12.3622 25.1761 12.2861 24.8466 12.111C24.7722 12.0647 24.6885 12.0414 24.6038 12.0434C24.5191 12.0454 24.4363 12.0727 24.3637 12.1225C24.2782 12.1945 24.2102 12.2901 24.1662 12.4004C24.1222 12.5107 24.1036 12.6319 24.1123 12.7526C24.1123 12.9045 24.0593 13.0503 23.965 13.1577C23.8706 13.2651 23.7427 13.3255 23.6093 13.3255C23.4759 13.3255 23.348 13.2651 23.2537 13.1577C23.1594 13.0503 23.1064 12.9045 23.1064 12.7526C23.0955 12.4368 23.1564 12.1232 23.2833 11.8422C23.4102 11.5611 23.5988 11.3222 23.8306 11.1487C24.0467 10.9978 24.2927 10.9114 24.5458 10.8974C24.799 10.8833 25.0512 10.9422 25.2791 11.0685C25.4428 11.1541 25.6219 11.1946 25.8019 11.1867C25.9819 11.1787 26.1578 11.1225 26.3151 11.0226C26.5364 10.8279 26.6068 10.4613 26.5264 9.91133C26.5264 9.89987 26.5364 9.89987 26.5264 9.88841L24.1425 8.273C22.8549 8.15843 22.4123 8.99478 21.8993 9.98007C21.6517 10.5589 21.2819 11.0589 20.8231 11.4351C20.1945 11.7665 19.4881 11.855 18.8113 11.6871C17.7753 11.5726 17.2522 11.584 16.9706 12.2141C16.9265 12.3073 16.8612 12.3851 16.7815 12.4396C16.7019 12.494 16.6108 12.523 16.5179 12.5235C16.4382 12.5222 16.3595 12.5027 16.2866 12.4662C16.1692 12.3933 16.0814 12.2711 16.0419 12.1256C16.0025 11.9801 16.0145 11.8227 16.0753 11.6871C16.709 10.3009 17.9865 10.4498 18.9119 10.5529C19.3734 10.6648 19.8529 10.6331 20.3 10.4613C20.6106 10.1673 20.8611 9.79979 21.0343 9.38431C21.4066 8.51855 22.013 7.81175 22.7644 7.36791L22.1206 6.93255ZM33.99 27.8871L36.0621 26.8216L35.7211 16.2584C34.9365 16.1782 33.1963 15.9949 31.4562 15.8231C29.716 15.6512 27.9758 15.4679 27.2114 15.3992C26.9498 15.3762 26.6078 15.3762 26.4771 15.5481C26.2256 15.8574 26.3765 16.9 26.5173 17.8967L26.5676 18.2519C26.6897 18.7576 26.7124 19.2877 26.6342 19.8045C26.556 20.3214 26.3787 20.8122 26.115 21.2421C25.9507 21.4573 25.7462 21.6277 25.5163 21.7408C25.2865 21.8538 25.0373 21.9066 24.7872 21.8952L24.7369 21.8952C24.4583 21.8875 24.1865 21.7953 23.9496 21.6282C23.7127 21.461 23.5192 21.225 23.389 20.9443C23.1484 20.3913 23.0256 19.7815 23.0309 19.1643C23.0361 18.5472 23.1692 17.9402 23.4192 17.3926C23.5682 17.086 23.6603 16.7478 23.6897 16.3989C23.7191 16.0501 23.6852 15.6981 23.5902 15.3648C23.5243 15.235 23.4286 15.1281 23.3135 15.0554C23.1983 14.9828 23.068 14.9471 22.9364 14.9523L21.8903 14.8378C21.0655 14.7461 20.633 14.7003 19.9087 14.6545C19.5768 14.643 19.3555 14.6888 19.275 14.8149C19.2247 14.8951 19.0839 15.2617 19.4863 16.4761C19.6062 16.893 19.6387 17.3361 19.581 17.7698C19.5234 18.2036 19.3772 18.6159 19.1543 18.9737C18.9441 19.2886 18.666 19.5363 18.3471 19.6929C18.0281 19.8495 17.679 19.9095 17.3337 19.8673C16.9669 19.8635 16.6069 19.7544 16.2869 19.5502C15.9669 19.3459 15.6973 19.0531 15.503 18.6987C15.3224 18.2721 15.2362 17.8016 15.252 17.3283C15.2678 16.855 15.385 16.3933 15.5935 15.9834C15.6921 15.7956 15.7532 15.5852 15.7723 15.3674C15.7914 15.1496 15.7682 14.9296 15.7042 14.7232C15.5711 14.5488 15.4053 14.4108 15.2189 14.3195C15.0326 14.2283 14.8305 14.1861 14.6279 14.1962L7.77787 13.6119C7.72081 13.6011 7.66614 13.5778 7.61693 13.5431C7.58675 13.5202 7.54652 13.5317 7.51634 13.5088C7.51634 13.4973 7.51634 13.4973 7.50628 13.4973C7.49622 13.4973 7.49622 13.4744 7.48617 13.4629C7.43037 13.4009 7.38592 13.327 7.3554 13.2453C7.3554 13.2338 7.33528 13.2223 7.33528 13.2109C7.32523 13.1765 6.47023 10.0259 4.69989 8.90312C4.63442 8.87236 4.57538 8.82619 4.52666 8.76764C4.47793 8.70909 4.44061 8.63947 4.41715 8.56336C4.39368 8.48724 4.38459 8.40633 4.39048 8.32594C4.39637 8.24555 4.4171 8.16747 4.45132 8.09684C4.48553 8.0262 4.53246 7.96459 4.58903 7.91605C4.6456 7.8675 4.71054 7.83311 4.77958 7.81513C4.84863 7.79715 4.92023 7.79598 4.9897 7.81171C5.05918 7.82743 5.12495 7.85969 5.18271 7.90638C6.46704 8.8813 7.449 10.2924 7.9891 11.9392C9.41745 10.2207 13.622 6.19931 21.7193 5.80978L21.7193 5.79832C21.5986 4.65264 21.1057 2.17796 19.094 2.06339C14.847 1.99811 10.6237 2.79337 6.62111 4.41204L6.10812 4.65264C4.20701 5.54627 1.83315 6.64612 1.27992 8.47922C1.16369 8.96802 1.14309 9.47993 1.21956 9.97879C1.29604 10.4777 1.46772 10.9513 1.7225 11.3663C1.84743 11.6024 1.99968 11.8182 2.17515 12.0079C2.70826 12.6037 3.06032 13.1422 3.12067 15.0784L3.42243 25.7561L33.99 27.8871ZM25.1181 40.7531L27.9547 32.2522L27.5121 32.4698L27.3914 32.5386L20.6621 35.9985C21.6066 38.1341 23.1856 39.8189 25.1181 40.7531ZM32.1894 40.9708L28.9002 32.6646L26.0647 41.1541L26.0647 41.1656C28.0659 41.8989 30.2272 41.8302 32.1894 40.9708ZM37.2892 35.3913L29.8055 32.172L33.0947 40.4896C34.974 39.4022 36.4585 37.5979 37.2892 35.3913ZM37.4602 27.3601L34.3521 28.964L34.2515 29.0099L30.1777 31.1065L37.6513 34.3258L37.6614 34.3258C38.3048 32.0475 38.2337 29.5854 37.4602 27.3601Z" fill="#96CB00"/>
</svg>
