<svg width="20" height="22" viewBox="0 0 20 22" fill="none" xmlns="http://www.w3.org/2000/svg">
<path d="M5.8 0H14.2C17.4 0 20 2.81081 20 6.27027V15.3514C20 17.0143 19.3889 18.6092 18.3012 19.7851C17.2135 20.961 15.7383 21.6216 14.2 21.6216H5.8C2.6 21.6216 0 18.8108 0 15.3514V6.27027C0 4.60729 0.61107 3.01242 1.69878 1.83652C2.78649 0.660616 4.26174 0 5.8 0ZM5.6 2.16216C4.64522 2.16216 3.72955 2.5722 3.05442 3.30207C2.37928 4.03194 2 5.02186 2 6.05405V15.5676C2 17.7189 3.61 19.4595 5.6 19.4595H14.4C15.3548 19.4595 16.2705 19.0494 16.9456 18.3196C17.6207 17.5897 18 16.5998 18 15.5676V6.05405C18 3.9027 16.39 2.16216 14.4 2.16216H5.6ZM15.25 3.78378C15.5815 3.78378 15.8995 3.92616 16.1339 4.17959C16.3683 4.43301 16.5 4.77673 16.5 5.13514C16.5 5.49354 16.3683 5.83726 16.1339 6.09069C15.8995 6.34411 15.5815 6.48649 15.25 6.48649C14.9185 6.48649 14.6005 6.34411 14.3661 6.09069C14.1317 5.83726 14 5.49354 14 5.13514C14 4.77673 14.1317 4.43301 14.3661 4.17959C14.6005 3.92616 14.9185 3.78378 15.25 3.78378ZM10 5.40541C11.3261 5.40541 12.5979 5.9749 13.5355 6.98861C14.4732 8.00232 15 9.37721 15 10.8108C15 12.2444 14.4732 13.6193 13.5355 14.633C12.5979 15.6467 11.3261 16.2162 10 16.2162C8.67392 16.2162 7.40215 15.6467 6.46447 14.633C5.52678 13.6193 5 12.2444 5 10.8108C5 9.37721 5.52678 8.00232 6.46447 6.98861C7.40215 5.9749 8.67392 5.40541 10 5.40541ZM10 7.56757C9.20435 7.56757 8.44129 7.90927 7.87868 8.51749C7.31607 9.12572 7 9.95065 7 10.8108C7 11.671 7.31607 12.4959 7.87868 13.1041C8.44129 13.7124 9.20435 14.0541 10 14.0541C10.7956 14.0541 11.5587 13.7124 12.1213 13.1041C12.6839 12.4959 13 11.671 13 10.8108C13 9.95065 12.6839 9.12572 12.1213 8.51749C11.5587 7.90927 10.7956 7.56757 10 7.56757Z" fill="white"/>
</svg>
