<svg width="44" height="50" viewBox="0 0 44 50" fill="none" xmlns="http://www.w3.org/2000/svg">
<path d="M42.6334 41.2713C42.6334 41.8064 42.2576 42.2443 41.7792 42.2443H37.7131L34.45 47.4496C34.2877 47.7122 34.0314 47.8582 33.7581 47.8582H10.5147C10.2414 47.8582 9.98513 47.7122 9.82283 47.4496L6.55971 42.2443H2.48508C2.01526 42.2443 1.63086 41.8064 1.63086 41.2713C1.63086 40.7362 2.01526 40.2984 2.48508 40.2984H41.7792C42.2576 40.2984 42.6334 40.7362 42.6334 41.2713ZM12.1465 15.7678C9.76875 14.7794 8.06817 16.2396 7.72059 18.8074L4.89227 37.3913H8.91086L11.0649 20.8539C11.4849 17.966 11.3197 17.2149 12.1465 15.7678ZM31.0323 18.8015C30.8599 17.7043 30.631 17.0392 30.2676 16.5571C29.1225 15.1103 27.3816 15.2085 26.3423 16.1286C27.3063 18.3516 26.8459 20.0148 27.6548 37.3913H33.4557L31.4883 22.2941L31.0323 18.8015ZM20.1622 13.7754C21.2966 13.1931 22.7999 13.0897 24.134 13.7809C24.884 13.0974 25.3192 12.0803 25.3192 10.965C25.3192 9.32297 24.341 7.94926 23.0151 7.51493C23.238 7.01484 23.79 5.93934 25.176 3.67023C25.4454 3.2288 25.3499 2.62265 24.9628 2.31578C24.5749 2.00882 24.0435 2.11857 23.7737 2.55853C22.0011 5.46065 21.3327 6.8003 21.1825 7.54422C19.8996 8.00851 18.9616 9.3576 18.9616 10.965C18.9616 12.0724 19.4051 13.1075 20.1445 13.7819C20.1502 13.7791 20.1565 13.7783 20.1622 13.7754ZM10.8352 37.3715C10.8312 37.4024 10.8317 37.3987 10.8352 37.3715V37.3715ZM19.5287 17.3809C18.8825 19.3218 19.3212 23.1413 18.5366 37.3913H25.7553C24.9871 20.7933 25.3508 18.772 24.6659 17.141C23.2071 14.5997 20.3669 15.1274 19.5287 17.3809Z" fill="#F08E8E"/>
<path d="M10.8481 37.253C10.8481 37.2432 10.8481 37.2335 10.8567 37.2238V37.1946C10.8567 37.214 10.8481 37.2335 10.8481 37.253ZM13.2485 18.8253C11.5144 32.1644 11.0019 36.0952 10.8738 37.0876C10.8738 37.0876 10.8738 37.0876 10.8738 37.0973C10.8738 37.107 10.8652 37.1167 10.8652 37.1265V37.1557C10.8652 37.1751 10.8567 37.1849 10.8567 37.1946V37.2238C10.8567 37.2432 10.8481 37.2627 10.8481 37.2724C10.8481 37.2822 10.8481 37.2821 10.8481 37.2919C10.8481 37.3016 10.8481 37.3211 10.8396 37.3308C10.8396 37.3405 10.8311 37.36 10.8311 37.3892H16.6312C17.4342 22.9992 16.8021 18.8156 17.9296 16.1497C16.3408 14.7681 13.7781 15.2643 13.2485 18.8253ZM36.5651 18.8263C36.2553 16.1327 34.4613 14.8034 32.1381 15.7652C32.9532 17.1807 32.7441 17.5451 33.5696 23.5504L35.3773 37.3912H39.379L36.5651 18.8263Z" fill="#F08E8E"/>
</svg>
