<svg width="20" height="23" viewBox="0 0 20 23" fill="none" xmlns="http://www.w3.org/2000/svg">
<path d="M7.04 21.7111C8 22.0333 8.97 22.2222 10 22.2222C12.6522 22.2222 15.1957 21.0516 17.0711 18.9679C18.9464 16.8841 20 14.058 20 11.1111C20 9.65198 19.7413 8.20713 19.2388 6.85907C18.7362 5.51101 17.9997 4.28613 17.0711 3.25437C16.1425 2.22261 15.0401 1.40417 13.8268 0.845783C12.6136 0.287397 11.3132 0 10 0C8.68678 0 7.38642 0.287397 6.17317 0.845783C4.95991 1.40417 3.85752 2.22261 2.92893 3.25437C1.05357 5.33811 0 8.16426 0 11.1111C0 15.8333 2.67 19.8889 6.44 21.4889C6.35 20.6222 6.26 19.1889 6.44 18.2L7.59 12.7111C7.59 12.7111 7.3 12.0667 7.3 11.0444C7.3 9.51111 8.16 8.36667 9.14 8.36667C10 8.36667 10.4 9.06667 10.4 9.96667C10.4 10.9222 9.83 12.2889 9.54 13.6C9.37 14.6889 10.06 15.6444 11.06 15.6444C12.84 15.6444 14.22 13.5333 14.22 10.5556C14.22 7.88889 12.5 6.06667 10.03 6.06667C7.21 6.06667 5.55 8.4 5.55 10.8556C5.55 11.8111 5.83 12.7778 6.29 13.4111C6.38 13.4778 6.38 13.5667 6.35 13.7333L6.06 14.9444C6.06 15.1333 5.95 15.2 5.78 15.0667C4.5 14.4444 3.76 12.4222 3.76 10.7889C3.76 7.27778 6 4.08889 10.32 4.08889C13.76 4.08889 16.44 6.83333 16.44 10.4778C16.44 14.3 14.31 17.3667 11.26 17.3667C10.29 17.3667 9.34 16.7889 9 16.1111L8.33 18.7444C8.1 19.7 7.47 20.9778 7.04 21.7444V21.7111Z" fill="white"/>
</svg>
