<svg width="52" height="39" viewBox="0 0 52 39" fill="none" xmlns="http://www.w3.org/2000/svg">
<path d="M41.0776 20.0709V10.0486C41.0776 9.34749 40.7622 8.71508 40.2286 8.35764C40.0588 8.24765 39.889 8.17891 39.707 8.13767L39.7192 8.11017L29.4583 3.49086C28.6578 1.90985 27.166 0.90625 25.5407 0.90625C23.8913 0.90625 22.3873 1.9236 21.5868 3.54586L11.9081 8.09642L11.8839 8.11017C11.5079 8.15142 11.1562 8.34389 10.8893 8.63259C10.5497 9.00379 10.3557 9.49871 10.3557 10.0349L10.3557 20.0571C3.68491 21.9269 0.0341797 24.8139 0.0341797 28.2097C0.0341797 34.7399 13.2787 38.2732 25.7227 38.2732C38.1667 38.2732 51.4112 34.7537 51.4112 28.2097C51.399 24.8139 47.7483 21.9406 41.0776 20.0709ZM25.5286 11.1485C27.9907 11.1485 29.992 8.90755 30.0405 6.13047L36.6991 9.12752L26.22 13.7468L26.0987 13.8156C25.9167 13.9256 25.7591 14.0768 25.6135 14.228C25.5286 14.1593 25.4558 14.0905 25.3709 14.0355L25.3103 13.9943L14.7341 9.15502L21.0289 6.19921C21.1017 8.93505 23.0908 11.1485 25.5286 11.1485ZM39.1248 14.1868L26.6808 19.5485V16.6614V16.4552C26.6808 16.1802 26.8021 15.919 27.0083 15.7678L39.137 10.4198V14.1868H39.1248ZM24.7403 19.6309L12.2963 14.228V10.4336L24.4249 15.974C24.619 16.1252 24.7403 16.3864 24.7403 16.6476V19.6309ZM12.2963 16.5927L24.7403 21.9956V25.3088L12.2963 19.9059V19.5622L12.2963 16.5927ZM12.2963 22.2706L24.7403 27.6597V30.7255L12.6116 25.3776C12.4175 25.2264 12.2841 24.9652 12.2841 24.7039V22.2706H12.2963ZM38.8216 25.1714L26.6808 30.7255V27.5773L39.1248 22.2293V24.4977C39.1248 24.7727 39.0157 25.0201 38.8216 25.1714ZM39.1248 19.8647L26.6808 25.2126V21.8994L39.1248 16.5514V19.5485V19.8647ZM23.1757 4.85191C23.588 3.79332 24.5098 3.10592 25.5286 3.10592C26.5353 3.10592 27.4571 3.77957 27.8694 4.81067C28.0271 5.19561 28.0999 5.60805 28.0999 6.02049C28.0999 7.62899 26.9477 8.93505 25.5286 8.93505C24.1096 8.93505 22.9573 7.62899 22.9573 6.02049C22.9573 5.60805 23.0301 5.2231 23.1757 4.85191ZM25.7106 36.0735C11.7141 36.0735 1.96264 31.9354 1.96264 28.2234C1.96264 26.12 5.21312 23.8791 10.3435 22.353V24.7177C10.3435 25.8038 10.8651 26.8211 11.7019 27.3573L11.7626 27.3985L24.1823 32.8702C24.243 32.9115 24.3036 32.939 24.3643 32.9664C24.3885 32.9802 24.4007 32.9802 24.4249 32.9939C24.4734 33.0077 24.5098 33.0214 24.5583 33.0352C24.5826 33.0352 24.6068 33.0489 24.6311 33.0489C24.6675 33.0627 24.716 33.0627 24.7524 33.0764C24.7766 33.0764 24.813 33.0764 24.8373 33.0764C24.8737 33.0764 24.9101 33.0902 24.9464 33.0902C24.9464 33.0902 24.9464 33.0902 24.9586 33.0902C24.9707 33.0902 24.995 33.0902 25.0071 33.0902C25.0556 33.0902 25.1162 33.0902 25.1648 33.0764C25.189 33.0764 25.2133 33.0627 25.2375 33.0627C25.286 33.0489 25.3224 33.0489 25.3709 33.0352C25.3952 33.0214 25.4195 33.0214 25.4558 33.0077C25.4922 32.9939 25.5407 32.9802 25.5771 32.9664C25.6014 32.9527 25.6257 32.939 25.662 32.9252C25.6742 32.9115 25.6984 32.9115 25.7106 32.8977C25.7227 32.9115 25.7469 32.9115 25.7591 32.9252C25.7833 32.939 25.8197 32.9527 25.844 32.9664C25.8804 32.9802 25.9289 32.9939 25.9653 33.0077C25.9895 33.0214 26.0259 33.0214 26.0502 33.0352C26.0865 33.0489 26.1351 33.0489 26.1714 33.0627C26.1957 33.0627 26.2321 33.0764 26.2563 33.0764C26.3049 33.0764 26.3534 33.0902 26.3898 33.0902C26.414 33.0902 26.4261 33.0902 26.4504 33.0902H26.4625C26.4989 33.0902 26.5353 33.0902 26.5717 33.0764C26.6081 33.0764 26.6323 33.0764 26.6687 33.0627C26.7051 33.0627 26.7415 33.0489 26.7779 33.0352C26.8021 33.0352 26.8385 33.0214 26.8628 33.0214C26.8992 33.0077 26.9477 32.9939 26.9841 32.9802C27.0083 32.9664 27.0326 32.9665 27.0568 32.9527C27.1175 32.9252 27.1781 32.8977 27.2509 32.8565L39.6221 27.2061L39.7434 27.1373C40.5682 26.6012 41.0776 25.5976 41.0776 24.5115V22.3393C46.208 23.8653 49.4585 26.12 49.4585 28.2097C49.4585 31.9354 39.707 36.0735 25.7106 36.0735Z" fill="#090446" fill-opacity="0.49"/>
</svg>
