<svg width="24" height="24" viewBox="0 0 24 24" fill="none" xmlns="http://www.w3.org/2000/svg">
<rect x="0.5" y="0.5" width="23" height="23" rx="5.5" fill="white" stroke="#201A63"/>
<path d="M10.5714 5C12.0491 5 13.4662 5.58699 14.511 6.63183C15.5559 7.67668 16.1429 9.09379 16.1429 10.5714C16.1429 11.9514 15.6371 13.22 14.8057 14.1971L15.0371 14.4286H15.7143L20 18.7143L18.7143 20L14.4286 15.7143V15.0371L14.1971 14.8057C13.22 15.6371 11.9514 16.1429 10.5714 16.1429C9.09379 16.1429 7.67668 15.5559 6.63183 14.511C5.58699 13.4662 5 12.0491 5 10.5714C5 9.09379 5.58699 7.67668 6.63183 6.63183C7.67668 5.58699 9.09379 5 10.5714 5ZM10.5714 6.71429C8.42857 6.71429 6.71429 8.42857 6.71429 10.5714C6.71429 12.7143 8.42857 14.4286 10.5714 14.4286C12.7143 14.4286 14.4286 12.7143 14.4286 10.5714C14.4286 8.42857 12.7143 6.71429 10.5714 6.71429Z" fill="#201A63"/>
</svg>
