<svg width="15" height="16" viewBox="0 0 15 16" fill="none" xmlns="http://www.w3.org/2000/svg">
<path d="M5.57143 0C7.04906 0 8.46618 0.601651 9.51102 1.6726C10.5559 2.74354 11.1429 4.19605 11.1429 5.7106C11.1429 7.12507 10.6371 8.42533 9.80571 9.42688L10.0371 9.66409H10.7143L15 14.0569L13.7143 15.3747L9.42857 10.9819V10.2879L9.19714 10.0507C8.22 10.9029 6.95143 11.4212 5.57143 11.4212C4.09379 11.4212 2.67668 10.8195 1.63183 9.7486C0.586988 8.67766 0 7.22515 0 5.7106C0 4.19605 0.586988 2.74354 1.63183 1.6726C2.67668 0.601651 4.09379 0 5.57143 0ZM5.57143 1.75711C3.42857 1.75711 1.71429 3.51422 1.71429 5.7106C1.71429 7.90698 3.42857 9.66409 5.57143 9.66409C7.71429 9.66409 9.42857 7.90698 9.42857 5.7106C9.42857 3.51422 7.71429 1.75711 5.57143 1.75711Z" fill="#201A63"/>
</svg>
