<svg width="20" height="17" viewBox="0 0 20 17" fill="none" xmlns="http://www.w3.org/2000/svg">
<path d="M20 2C19.2639 2.35 18.4704 2.58 17.6482 2.69C18.4895 2.16 19.1396 1.32 19.4455 0.31C18.652 0.81 17.7725 1.16 16.8451 1.36C16.0899 0.5 15.0287 0 13.8241 0C11.5774 0 9.74187 1.92 9.74187 4.29C9.74187 4.63 9.78012 4.96 9.84704 5.27C6.4436 5.09 3.413 3.38 1.39579 0.79C1.04207 1.42 0.8413 2.16 0.8413 2.94C0.8413 4.43 1.55832 5.75 2.6673 6.5C1.98853 6.5 1.35755 6.3 0.80306 6C0.80306 6 0.80306 6 0.80306 6.03C0.80306 8.11 2.21797 9.85 4.09178 10.24C3.74761 10.34 3.38432 10.39 3.01147 10.39C2.75335 10.39 2.49522 10.36 2.24665 10.31C2.76291 12 4.26386 13.26 6.07075 13.29C4.67495 14.45 2.90631 15.13 0.975143 15.13C0.650096 15.13 0.325048 15.11 0 15.07C1.81644 16.29 3.97706 17 6.29063 17C13.8241 17 17.9637 10.46 17.9637 4.79C17.9637 4.6 17.9637 4.42 17.9541 4.23C18.7572 3.63 19.4455 2.87 20 2Z" fill="white"/>
</svg>
